<?xml version="1.0" standalone="no"?>
<!DOCTYPE svg PUBLIC "-//W3C//DTD SVG 20010904//EN"
 "http://www.w3.org/TR/2001/REC-SVG-20010904/DTD/svg10.dtd">
<svg version="1.0" xmlns="http://www.w3.org/2000/svg"
 width="190.000000pt" height="300.000000pt" viewBox="0 0 190.000000 300.000000"
 preserveAspectRatio="xMidYMid meet">
<metadata>
Created by potrace 1.15, written by Peter Selinger 2001-2017
</metadata>
<g transform="translate(0.000000,300.000000) scale(0.100000,-0.100000)"
fill="#000000" stroke="none">
<path d="M833 2814 c-66 -104 -177 -277 -246 -384 -69 -107 -170 -265 -225
-350 -55 -85 -159 -246 -231 -358 -72 -112 -131 -206 -131 -209 0 -3 116 -188
257 -412 392 -619 635 -1004 666 -1057 l28 -47 78 129 c73 122 708 1151 812
1317 27 43 49 80 49 83 0 2 -109 174 -241 382 -356 554 -674 1054 -686 1076
-8 15 -28 -10 -130 -170z m515 -474 c206 -322 406 -634 445 -695 39 -60 70
-114 70 -120 0 -5 -94 -161 -208 -345 -114 -184 -268 -434 -343 -555 -156
-253 -239 -388 -307 -497 -26 -43 -51 -78 -54 -78 -3 0 -62 89 -130 198 -69
108 -139 220 -156 247 -38 58 -361 569 -528 834 l-116 183 36 57 c20 31 80
124 133 206 680 1061 763 1187 773 1168 6 -10 179 -281 385 -603z"/>
<path d="M915 2771 c-16 -26 -205 -319 -420 -651 -214 -332 -389 -608 -387
-614 6 -18 836 -1325 842 -1325 3 0 55 82 116 182 61 100 245 397 408 659 163
263 299 485 302 493 4 9 -10 40 -32 73 -21 31 -204 316 -407 632 -203 316
-374 580 -380 587 -9 9 -19 0 -42 -36z m195 -766 c253 -67 431 -286 430 -530
-1 -142 -46 -249 -153 -361 -224 -237 -606 -245 -847 -18 -274 259 -202 696
143 863 34 17 87 37 117 45 72 19 240 20 310 1z"/>
<path d="M522 1737 c-8 -9 1 -55 34 -170 24 -86 44 -164 44 -172 0 -33 18 -10
63 80 l47 95 69 0 69 0 -59 -120 c-32 -66 -59 -123 -59 -125 0 -3 88 -5 195
-5 l195 0 0 25 c0 18 -5 25 -19 25 -16 0 -20 8 -23 43 l-3 42 -28 -42 c-17
-27 -35 -43 -48 -43 -18 0 -20 5 -17 72 2 59 6 73 20 76 13 3 17 -6 20 -40 l3
-43 26 43 26 43 -29 102 c-16 56 -37 108 -46 115 -23 18 -465 17 -480 -1z
m418 -237 c0 -16 -7 -20 -35 -20 -19 0 -35 -4 -35 -10 0 -5 13 -10 28 -10 34
0 52 -16 52 -47 0 -28 -27 -43 -79 -43 l-41 0 0 75 0 75 55 0 c48 0 55 -2 55
-20z"/>
<path d="M642 1383 c-45 -93 -82 -176 -82 -185 0 -16 15 -18 175 -18 202 0
245 18 53 22 l-123 3 2 26 c1 14 33 90 72 168 39 78 71 144 71 147 0 2 -19 4
-43 4 l-43 0 -82 -167z"/>
</g>
</svg>
