<?xml version="1.0" encoding="UTF-8" standalone="no"?>
<svg width="994px" height="395px" viewBox="0 0 994 395" version="1.1" xmlns="http://www.w3.org/2000/svg" xmlns:xlink="http://www.w3.org/1999/xlink">
    <!-- Generator: Sketch 3.8.3 (29802) - http://www.bohemiancoding.com/sketch -->
    <title>Логотип 2010 (надежный друг)</title>
    <desc>Created with Sketch.</desc>
    <defs></defs>
    <g id="Page-1" stroke="none" stroke-width="1" fill="none" fill-rule="evenodd">
        <g id="Логотип-2010-(надежный-друг)">
            <path d="M239.6,149.8 C231.2,133.9 219.4,120.6 204.1,110.1 C194,103.2 182.8,98.1 170.5,94.7 C158.2,91.3 144.3,89.6 128.9,89.6 C87.1,89.6 38.2,97.3 0.5,76.1 C6.2,91.9 16.2,113.5 32,125.1 C36.5,128.2 44.1,131.7 47.9,130.8 L47.9,244 C62.2,230.6 77.1,221.9 94.4,212.6 C94.5,230.4 94.5,244.1 111.6,254 L111.7,254 C111.2,251.4 111,248.2 111,244.4 L111,238.6 L111,136.8 C111,126.7 112.3,119.9 114.9,116.5 C117.4,113 121.8,111.3 128,111.3 C143.6,111.3 157,119.8 168.4,136.8 C179.7,153.7 185.4,174.6 185.4,199.3 C185.4,220.8 180.6,237.6 170.9,249.7 C161.3,261.8 147.8,267.8 130.4,267.8 C129.1,267.8 127.9,267.8 126.7,267.7 C124.2,267.5 121.8,267.2 119.6,266.7 L119.5,266.7 C100,262.5 88.9,247 89.7,225.5 C71.4,235 58.4,244.6 47.7,256 C39.2,265.1 32.3,275.2 25.3,287.5 L25.2,288.3 L33.1,288.3 L134.2,288.3 L148.5,288.3 C166.6,288.3 181.2,286.6 192.3,283.3 C203.4,280 213.5,274.5 222.5,267 C232.2,258.7 239.5,249.1 244.6,237.9 C249.6,226.7 252.2,214.7 252.2,201.7 C252.2,183.1 248,165.8 239.6,149.8 L239.6,149.8 Z M544.2,210.2 C542.4,210.2 539.8,210.4 536.3,210.7 C532.8,211.1 530.1,211.2 528.3,211.2 C527.2,211.2 525.8,211.1 524.5,210.9 L524.5,185.9 L495.3,189.8 L495.3,193 C497.3,193.2 498.6,193.9 499.4,195.2 C500.1,196.4 500.5,199.6 500.5,204.8 L500.5,210.9 C499.1,211.1 497.8,211.2 496.6,211.2 C494.8,211.2 492.2,211 488.7,210.7 C485.2,210.4 482.5,210.2 480.8,210.2 C471.2,210.2 463.4,213.1 457.4,218.8 C452.1,223.9 449.1,230.4 448.6,238.2 C447,236.4 445.2,234.9 443,233.7 C440.7,232.4 438,231.5 435.1,230.9 C432.2,230.3 427.9,230.1 422.5,230.1 L405.5,230.1 L405.5,211.8 L378.1,215.3 L378.1,218.4 C379.5,218.5 380.5,219 381,219.9 C381.5,220.8 381.8,223 381.8,226.7 L381.8,264 C381.8,267 381.5,269 380.7,269.8 C380.2,270.4 379.8,271 378.4,271 C376.8,270.9 375.4,269.7 374.2,268.4 C372.9,266.8 371.5,263.9 370,259.7 L358.3,228.5 C358.2,228.1 358,227.6 357.7,226.9 C356,222.5 355.1,219.8 355.1,218.9 C355.1,217.9 355.3,217.1 355.7,216.5 C356.1,215.9 356.7,215.3 357.6,214.7 L357.6,211.6 L330.3,211.6 L330.3,214.7 C331.2,215.3 331.8,216 332.2,216.7 C332.6,217.4 332.8,218.3 332.8,219.3 C332.8,220.3 332.3,222.2 331.2,225 C330.8,226.1 330.5,226.9 330.3,227.5 L320.6,252 C318.4,256 315.5,259.2 312.6,261.3 C309.2,263.9 305.2,265.2 300.5,265.2 C294.7,265.2 289.8,263.4 286,259.8 C282.1,256.2 279.7,251.1 278.6,244.7 L288.5,242.4 L324.3,234.2 C321,225.6 316.6,219.4 311.3,215.6 C306,211.8 299,209.8 290.4,209.8 C279.1,209.8 269.8,212.8 262.6,218.9 C255.4,225 251.7,232.6 251.7,241.8 C251.7,251.7 255.7,259.9 263.8,266.3 C271.9,272.8 282.2,276 294.9,276 C297.4,276 300.6,276 304.3,275.3 C306.7,274.8 308.4,274.4 309.7,274.1 L330.4,274.1 L330.3,271 C329,270.9 328,270.4 327.3,269.6 C326.6,268.8 326.2,267.6 326.2,266.1 C326.2,264.7 326.8,262.4 328,259.1 L328.1,259 L336.9,234.7 L338.8,240.5 L345.5,260.7 C345.6,261.1 345.8,261.5 346,262.1 C346.7,263.9 347,265.4 347,266.4 C347,267.9 346.6,269 345.8,269.8 C345,270.6 343.9,271 342.5,271 L342.5,274.1 L379,274.1 L379,274.1 L412.3,274.1 C417.2,274.1 435.1,273.8 437.6,273.3 C440.1,272.8 442.4,272 444.3,270.8 C447.4,268.9 449.8,266.4 451.6,263.3 C452.5,261.7 453.1,260.1 453.6,258.4 C456.3,262.8 459.7,266.4 464,269.5 C467,271.7 470.5,273.4 474.4,274.4 C478.4,275.4 483.2,275.9 489,275.9 C491.8,275.9 494.9,275.7 498.1,275.4 C499,275.3 499.8,275.2 500.5,275.1 L500.5,290.7 C500.5,294.9 500,297.5 499.1,298.8 C498.2,300 496.5,300.8 494.2,301 L494.2,304.1 L531.5,304.1 L531.5,301 C528.8,300.4 526.9,299.3 525.9,297.6 C524.9,295.9 524.4,292.2 524.4,286.4 L524.4,275.1 C525.1,275.2 525.9,275.3 526.8,275.4 C530.1,275.7 533.1,275.9 535.9,275.9 C541.6,275.9 546.5,275.4 550.4,274.4 C554.4,273.4 557.8,271.7 560.8,269.5 C565.6,266 569.4,261.8 572.2,256.7 C574.9,251.6 576.3,246.4 576.3,240.9 C576.3,231.8 573.3,224.3 567.4,218.6 C561.6,213.1 553.8,210.2 544.2,210.2 L544.2,210.2 Z M277.6,235.6 C277.5,234 277.5,233 277.5,232.5 C277.5,228.7 278.6,225.6 280.7,223.2 C282.8,220.7 285.4,219.5 288.5,219.5 C291.2,219.5 293.4,220.6 295.2,222.7 C297,224.8 298.2,228 299,232 L277.8,237 C277.7,236.7 277.6,236.2 277.6,235.6 L277.6,235.6 Z M425,264.1 C423.2,266.9 420.7,268.2 417.7,268.2 C410.2,268.2 405.3,262.5 405.3,259.3 L405.3,237 C405.6,237 412.4,236.9 412.9,236.9 C413.8,236.9 414.5,236.8 414.8,236.8 C419,236.8 422.3,238.2 424.5,241 C426.7,243.8 427.8,247.8 427.8,253.1 C427.8,257.7 426.9,261.4 425,264.1 L425,264.1 Z M500.4,264.8 C498.7,265.3 496.8,265.6 494.8,265.6 C488.5,265.6 483.5,263.4 479.8,259.1 C476.1,254.8 474.2,248.9 474.2,241.5 C474.2,234.8 475.7,229.5 478.8,225.5 C481.9,221.6 486,219.6 491.2,219.6 C494.7,219.6 497.7,220.6 500.3,222.5 L500.3,264.8 L500.4,264.8 Z M545,259.1 C541.3,263.4 536.3,265.6 530,265.6 C528,265.6 526.2,265.3 524.5,264.8 L524.5,222.5 C527.1,220.6 530.2,219.6 533.6,219.6 C538.8,219.6 542.9,221.6 546,225.5 C549.1,229.4 550.6,234.7 550.6,241.5 C550.6,248.9 548.7,254.8 545,259.1 L545,259.1 Z M720.1,217.3 C720.7,216.2 723.3,215.5 724.8,215.1 L724.8,211.5 L690.2,211.5 L690.2,215.1 C691.8,215.4 694.4,216.1 695,217.3 C695.6,218.4 695.9,220.9 695.9,224.8 L695.9,228.7 L676.4,228.7 L676.4,224.8 C676.4,220.9 676.7,218.4 677.3,217.3 C677.9,216.2 680.5,215.5 682,215.1 L682,211.5 L647.5,211.5 L647.5,215.1 C649.1,215.4 651.6,216.1 652.1,217.3 C652.7,218.4 653,220.9 653,224.8 L653,261 C653,264.9 652.7,267.4 652.1,268.5 C651.8,269.1 650.8,270 649.8,270 C648.8,270 647.7,268.9 647.1,268.1 C646.1,266.7 645.6,264 645.6,260 L645.6,210.8 L614.4,212.6 L614.4,215.8 C617,216.1 618.9,217 619.9,218.4 C620.9,219.8 621.4,222.5 621.4,226.6 L621.4,241.9 C621.4,248.7 620.4,254 618.3,257.6 C616.2,261.2 613.2,263 609.3,263 C607,263 605.3,262.1 604.2,260.4 C603.1,258.7 602.6,255.9 602.6,252 L602.6,210.9 L571.5,212.7 L571.5,215.9 C574.1,216.2 575.9,217 576.9,218.4 C577.9,219.8 578.4,222.6 578.4,226.7 L578.4,254.4 C578.4,262.7 579.7,268.4 582.3,271.4 C584.9,274.5 589.3,276.1 595.6,276.1 C600.5,276.1 605.1,275.2 609.2,273.3 C613.4,271.4 617.4,268.4 621.3,264.4 C621.4,266.4 621.6,268.2 622,269.8 C622.4,271.4 622.9,272.9 623.6,274.4 L652.4,274.4 L652.4,274.4 L681.8,274.4 L681.8,270.8 C680.2,270.5 677.6,269.8 677.1,268.7 C676.5,267.6 676.2,265.1 676.2,261.2 L676.2,235.5 L695.7,235.5 L695.7,261 C695.7,264.9 695.4,267.4 694.8,268.5 C694.2,269.6 691.6,270.3 690,270.6 L690,274.2 L724.6,274.2 L724.6,270.6 C723,270.3 720.4,269.6 719.9,268.5 C719.3,267.4 719,264.9 719,261 L719,224.9 C719.2,220.9 719.5,218.4 720.1,217.3 L720.1,217.3 Z" id="Shape" fill="#005691"></path>
            <path d="M699.4,143.8 L699.4,150.2 L704.4,150.2 C708,150.2 710.4,150.1 711.6,149.8 C712.8,149.6 713.8,149.2 714.5,148.7 C715.2,148.2 715.5,147.6 715.5,146.9 C715.5,146.1 715,145.4 714.1,144.9 C713.1,144.4 711.9,144 710.4,143.9 C709.3,143.8 707.1,143.7 703.9,143.7 L699.4,143.7 L699.4,143.8 Z M690.3,162.6 L690.3,140 L704.9,140 C710.4,140 714,140.1 715.7,140.4 C718.3,140.7 720.5,141.5 722.2,142.6 C723.9,143.7 724.8,145.2 724.8,147 C724.8,148.4 724.3,149.5 723.3,150.5 C722.3,151.4 721,152.2 719.5,152.7 C717.9,153.2 716.4,153.6 714.8,153.8 C712.6,154 709.5,154.1 705.4,154.1 L699.5,154.1 L699.5,162.6 L690.3,162.6 L690.3,162.6 Z M648.8,151.3 C648.8,153.9 650,155.8 652.3,157.1 C654.7,158.4 657.7,159.1 661.3,159.1 C664.9,159.1 667.9,158.4 670.2,157.1 C672.5,155.8 673.7,153.8 673.7,151.2 C673.7,148.6 672.6,146.7 670.3,145.4 C668,144.1 665,143.5 661.3,143.5 C657.5,143.5 654.5,144.1 652.2,145.4 C650,146.7 648.8,148.7 648.8,151.3 L648.8,151.3 Z M639.4,151.4 C639.4,149.1 640.1,147.2 641.5,145.6 C642.5,144.5 643.9,143.4 645.7,142.5 C647.5,141.6 649.4,140.9 651.5,140.5 C654.3,139.9 657.6,139.6 661.2,139.6 C667.8,139.6 673.1,140.6 677.1,142.7 C681.1,144.8 683.1,147.6 683.1,151.3 C683.1,155 681.1,157.8 677.2,159.9 C673.3,162 668,163 661.4,163 C654.7,163 649.4,162 645.4,159.9 C641.4,157.8 639.4,155 639.4,151.4 L639.4,151.4 Z M614.5,162.6 L614.5,143.8 L601.1,143.8 L601.1,140 L637,140 L637,143.8 L623.7,143.8 L623.7,162.6 L614.5,162.6 L614.5,162.6 Z M586,153.6 L579.8,145.2 L573.7,153.6 L586,153.6 L586,153.6 Z M602.7,162.6 L592.8,162.6 L588.9,157.5 L570.9,157.5 L567.2,162.6 L557.5,162.6 L575,140 L584.6,140 L602.7,162.6 L602.7,162.6 Z M534.7,143.8 L534.7,150.2 L539.7,150.2 C543.3,150.2 545.7,150.1 546.9,149.8 C548.1,149.6 549,149.2 549.7,148.7 C550.4,148.2 550.7,147.6 550.7,146.9 C550.7,146.1 550.2,145.4 549.3,144.9 C548.3,144.4 547.1,144 545.6,143.9 C544.5,143.8 542.3,143.7 539,143.7 L534.7,143.7 L534.7,143.8 Z M525.6,162.6 L525.6,140 L540.2,140 C545.7,140 549.3,140.1 551,140.4 C553.6,140.7 555.8,141.5 557.5,142.6 C559.3,143.7 560.1,145.2 560.1,147 C560.1,148.4 559.6,149.5 558.6,150.5 C557.6,151.4 556.3,152.2 554.8,152.7 C553.3,153.2 551.7,153.6 550.1,153.8 C547.9,154 544.8,154.1 540.7,154.1 L534.8,154.1 L534.8,162.6 L525.6,162.6 L525.6,162.6 Z M483.6,162.6 L483.6,140 L517,140 L517,143.8 L492.7,143.8 L492.7,148.8 L515.3,148.8 L515.3,152.6 L492.7,152.6 L492.7,158.8 L517.9,158.8 L517.9,162.6 L483.6,162.6 L483.6,162.6 Z M438.4,140 L474.2,140 L474.2,162.6 L465.1,162.6 L465.1,143.8 L447.4,143.8 L447.4,162.6 L438.3,162.6 L438.3,140 L438.4,140 Z M396.9,151.3 C396.9,153.9 398.1,155.8 400.4,157.1 C402.8,158.4 405.7,159.1 409.4,159.1 C413,159.1 416,158.4 418.3,157.1 C420.6,155.8 421.8,153.8 421.8,151.2 C421.8,148.6 420.7,146.7 418.4,145.4 C416.1,144.1 413.1,143.5 409.4,143.5 C405.6,143.5 402.6,144.1 400.3,145.4 C398,146.7 396.9,148.7 396.9,151.3 L396.9,151.3 Z M387.5,151.4 C387.5,149.1 388.2,147.2 389.5,145.6 C390.5,144.5 391.9,143.4 393.7,142.5 C395.5,141.6 397.4,140.9 399.5,140.5 C402.3,139.9 405.5,139.6 409.2,139.6 C415.8,139.6 421.1,140.6 425.1,142.7 C429.1,144.8 431.1,147.6 431.1,151.3 C431.1,155 429.1,157.8 425.2,159.9 C421.2,162 416,163 409.4,163 C402.7,163 397.4,162 393.4,159.9 C389.5,157.8 387.5,155 387.5,151.4 L387.5,151.4 Z M357.3,143.8 L357.3,150.2 L362.3,150.2 C365.9,150.2 368.3,150.1 369.5,149.8 C370.7,149.6 371.7,149.2 372.4,148.7 C373.1,148.2 373.4,147.6 373.4,146.9 C373.4,146.1 372.9,145.4 371.9,144.9 C371,144.4 369.7,144 368.3,143.9 C367.2,143.8 365,143.7 361.8,143.7 L357.3,143.7 L357.3,143.8 Z M348.2,162.6 L348.2,140 L362.8,140 C368.3,140 371.9,140.1 373.6,140.4 C376.2,140.7 378.3,141.5 380.1,142.6 C381.8,143.7 382.7,145.2 382.7,147 C382.7,148.4 382.2,149.5 381.2,150.5 C380.2,151.4 378.9,152.2 377.4,152.7 C375.9,153.2 374.3,153.6 372.7,153.8 C370.6,154 367.4,154.1 363.3,154.1 L357.4,154.1 L357.4,162.6 L348.2,162.6 L348.2,162.6 Z M304.5,140 L314.6,140 L325.1,151.7 L334.1,140 L343.6,140 L328.4,157.2 C326.7,159.1 325.1,160.5 323.3,161.4 C321.6,162.4 319.3,162.9 316.6,162.9 C313.9,162.9 311.8,162.8 310.3,162.6 L310.3,159.2 C311.6,159.2 312.8,159.3 313.8,159.3 C315.9,159.3 317.4,159.1 318.3,158.7 C319.2,158.3 320.1,157.5 320.9,156.2 L304.5,140 L304.5,140 Z M280.7,162.6 L280.7,143.8 L267.3,143.8 L267.3,140 L303.1,140 L303.1,143.8 L289.8,143.8 L289.8,162.6 L280.7,162.6 L280.7,162.6 Z" id="Shape" fill="#005691"></path>
            <path d="M838.4,96.9 C839.2,97.5 839.7,97.9 840,98.2 C841.3,99.6 841.5,101.4 839.5,99.3 C833,93.3 823.2,90.8 815.8,91.6 C812.3,92.1 810.3,91.2 812.8,90.4 C815.9,89.8 818.9,89.9 821.8,90.3 C816.4,74.8 831.9,60.8 843.9,66.7 C856.6,72.9 854.6,92.4 838.4,96.9 M986.8,74.6 C976.7,68.8 967.5,66.2 953.8,63.8 C943.2,62.1 930.4,66.5 920,64 C888.9,15.1 846.8,-2.5 816.5,0.3 C789,3.1 771.7,38 772.8,52.4 C774.9,54.5 776.3,57.2 777.3,60 C779,59.9 782.6,60.2 784.6,64.9 C784.6,64.9 781.4,61.9 777.9,62 C779.5,67.9 779.2,73.5 779.2,73.5 C778.2,63.4 773.2,57.9 771.6,56.3 C758.1,61.8 711.1,55.2 707.9,70.1 C702.5,91.9 746.8,102.1 752.3,103.1 C754.1,103.5 756.2,103.8 758.3,104.2 C763.5,105.1 769.5,105.9 775.8,106.4 L762.8,107.5 C730,112.8 753.2,132.5 790,120.7 C799.1,116.7 811.3,106.5 825.6,112.4 C826.5,108.8 820.9,105.3 818.4,103 L815.9,101.6 C815.9,101.6 817,100.8 818.8,101 C830.2,102.9 842,111.8 841.5,123.6 C840.6,144.1 849.8,159 862.5,172.7 C855.6,177.8 850,183.9 846.1,189.4 C843.2,193.5 837.3,206.3 836.1,223.2 C835.3,234.5 836.6,247.6 842.2,261.1 C847.6,274 854,263.4 855.8,260.9 C858.1,257.7 862.7,250.7 869.6,245 C879.6,236.5 895.1,228.4 906.5,218.4 C906.9,218.9 907.3,219.4 907.7,219.9 C920.5,239 915.5,273 902.8,291.7 C892,307.6 855.8,318.6 842.1,308.5 C842,308.4 841.8,308.2 841.6,308 C841.4,307.7 841.2,307.4 840.9,307 C838.8,304.1 834.7,297.9 825.2,290.8 C824.4,290.2 823.4,289.5 822.5,288.8 C822,288.5 821.5,288.2 820.9,287.8 C802.4,276.3 784.2,274.7 770,276.5 C760.6,277.7 753,280.3 748.2,282.5 C738.3,287.2 743.4,289.1 746.3,289.2 L746.5,289.2 L746.6,289.2 L747.1,289.2 C749.6,288.6 758.5,287 767.6,295.8 C767.8,296 768.1,296.2 768.3,296.5 C768.4,296.6 768.6,296.8 768.7,296.9 C777.9,306 787.6,316.9 799.8,319.7 C799.6,319.8 799.5,319.9 799.3,319.9 C795.9,321.5 788.7,327.7 784.4,338.6 C782.4,343.6 781,349.7 781,356.8 C780.9,367.2 779.2,373.6 777.1,377.7 C774.5,382.6 771.4,384 770,384.6 C769,384.9 767.2,385.8 765.9,386.9 C763.5,388.9 762.9,391.7 773.3,393.7 C810.3,401.1 837.2,360.8 841.6,348.3 C842.6,345.3 843.8,344 847.5,343.7 C848.4,343.6 849.4,343.6 850.3,343.5 C943.4,334.9 1008,207.9 967.7,137.4 C958.3,120.9 957.3,103.4 976.5,92.2 C981.2,89.3 991.4,85.5 992.6,83.8 C992.8,82.3 997.3,80.5 986.8,74.6" id="Shape" fill="#005691"></path>
            <path d="M839.7,126.1 C839.7,125.2 839.8,124.3 839.8,123.4 L839.8,122.6 C839.8,112.7 830.2,105.1 820.2,102.7 C820.4,102.9 820.6,103.1 820.6,103.1 C830.5,108.3 826.8,117 826.8,117 L824.8,113.6 C813,108.7 804.9,115.1 795.2,121.1 L790.8,123.8 C775.1,131.3 752.8,128.1 746.1,121.3 C744.7,119.9 744,118.4 744,116.8 C744,116.3 744.1,115.7 744.2,115.2 C745.5,111.3 752.6,107.6 761.9,106.1 C759.2,105.7 756.4,105.3 756.4,105.3 C723.8,113.1 731.4,135.5 799.3,146.9 C802.3,157.2 805.5,167.2 809.2,176.8 C802.4,184.5 793.9,197.6 798,216.7 C799.8,225.1 804.3,219.4 806.3,217.4 C813.9,209.8 820.3,211.9 824.9,208.7 C829.5,212.9 830.9,217.4 834.3,221.4 C835.5,201.8 841.2,185.9 856.7,172.4 C846.6,161 839.7,146.7 839.7,126.1" id="Shape" fill="#7DA6D7"></path>
            <path d="M832.2,83.4 C830.3,85.5 830.6,86.1 829.5,86.7 C829.2,86.9 828.7,86.7 828.6,86.4 C826.9,83 829.6,77.5 832.2,78.4 C833.5,78.9 834,81.4 832.2,83.4 M842.6,71.2 C835.3,65.5 821.8,75.2 825.6,88.7 C829.7,89.9 832.8,90.9 837.9,93.4 C845.1,89.8 851.8,78.3 842.6,71.2" id="Shape" fill="#005691"></path>
            <path d="M790,116.9 C788.4,115.9 774.7,113.3 769.2,114.8 C772.4,112.7 779.1,111.2 779.9,111 C780.7,110.9 770.5,108.3 764.7,111.2 C758.9,114.2 757.6,116.3 763.6,118.9 C777.2,123.2 781.2,117.4 790,116.9" id="Shape" fill="#A62024"></path>
            <path d="M884.8,235.8 C878,240.3 863.8,249.8 855.1,265.4 C862.4,274.7 864.2,278.6 865.1,287.4 C866.1,297.7 862.7,309.5 857.9,310.4 C862.5,311.1 883.1,307.1 895.9,295.4 C905.2,286.9 912.4,266.1 912.4,248.8 C912.4,237.1 910.6,230.3 904.8,221.8 C904.8,221.8 904.7,221.6 904.6,221.5 C898.3,227.4 892.2,230.8 884.8,235.8" id="Shape" fill="#7DA6D7"></path>
            <text id="Надежный-друг-в-море-туризма!" fill="#005691" font-family="Helvetica" font-size="47" font-weight="normal">
                <tspan x="27.5298" y="344.2032">Надежный друг в море туризма!</tspan>
            </text>
        </g>
    </g>
</svg>